<?xml version="1.0" encoding="UTF-8" standalone="no"?>
<!-- Created with Inkscape (http://www.inkscape.org/) -->

<svg
   xmlns:dc="http://purl.org/dc/elements/1.1/"
   xmlns:cc="http://creativecommons.org/ns#"
   xmlns:rdf="http://www.w3.org/1999/02/22-rdf-syntax-ns#"
   xmlns:svg="http://www.w3.org/2000/svg"
   xmlns="http://www.w3.org/2000/svg"
   xmlns:sodipodi="http://sodipodi.sourceforge.net/DTD/sodipodi-0.dtd"
   xmlns:inkscape="http://www.inkscape.org/namespaces/inkscape"
   width="9.4036446mm"
   height="10.103556mm"
   viewBox="0 0 33.32 35.8"
   id="svg2"
   version="1.1"
   inkscape:version="0.91 r13725"
   sodipodi:docname="at.svg">
  <defs
     id="defs4" />
  <sodipodi:namedview
     id="base"
     pagecolor="#ffffff"
     bordercolor="#666666"
     borderopacity="1.0"
     inkscape:pageopacity="0.0"
     inkscape:pageshadow="2"
     inkscape:zoom="15.839192"
     inkscape:cx="32.825125"
     inkscape:cy="8.3919666"
     inkscape:document-units="px"
     inkscape:current-layer="layer1"
     showgrid="false"
     inkscape:window-width="2560"
     inkscape:window-height="1257"
     inkscape:window-x="1280"
     inkscape:window-y="33"
     inkscape:window-maximized="1"
     fit-margin-top="0"
     fit-margin-left="0"
     fit-margin-right="0"
     fit-margin-bottom="0" />
  <metadata
     id="metadata7">
    <rdf:RDF>
      <cc:Work
         rdf:about="">
        <dc:format>image/svg+xml</dc:format>
        <dc:type
           rdf:resource="http://purl.org/dc/dcmitype/StillImage" />
        <dc:title />
      </cc:Work>
    </rdf:RDF>
  </metadata>
  <g
     inkscape:label="Layer 1"
     inkscape:groupmode="layer"
     id="layer1"
     transform="translate(-99.74,-532.76795)">
    <g
       style="font-style:normal;font-weight:normal;font-size:40px;line-height:125%;font-family:sans-serif;letter-spacing:0px;word-spacing:0px;fill:#000000;fill-opacity:1;stroke:none;stroke-width:1px;stroke-linecap:butt;stroke-linejoin:miter;stroke-opacity:1"
       id="text3336">
      <path
         d="m 115.5,568.56795 c 3.08,0 5.88,-0.72 8.48,-2.28 l -0.96,-2.16 c -2,1.16 -4.56,2 -7.28,2 -7.6,0 -13.28,-4.96 -13.28,-13.68 0,-10.44 7.68,-17.24 15.64,-17.24 8.12,0 12.4,5.28 12.4,12.52 0,5.8 -3.2,9.2 -6.04,9.2 -2.44,0 -3.28,-1.64 -2.44,-5.24 l 1.76,-8.92 -2.4,0 -0.52,1.84 -0.08,0 c -0.8,-1.48 -2.04,-2.2 -3.56,-2.2 -5.24,0 -8.6,5.64 -8.6,10.36 0,4.08 2.32,6.36 5.36,6.36 1.96,0 4,-1.36 5.44,-3.08 l 0.12,0 c 0.28,2.28 2.16,3.4 4.6,3.4 4.04,0 8.92,-4.08 8.92,-11.88 0,-8.8 -5.68,-14.8 -14.68,-14.8 -9.96,0 -18.64,7.84 -18.64,19.8 0,10.4 7,16 15.76,16 z m -0.8,-11.96 c -1.8,0 -3.16,-1.16 -3.16,-4.04 0,-3.36 2.16,-7.6 5.68,-7.6 1.2,0 2.04,0.52 2.88,1.88 l -1.28,7.12 c -1.52,1.84 -2.88,2.64 -4.12,2.64 z"
         id="path3341"
         inkscape:connector-curvature="0" />
    </g>
  </g>
</svg>
